<?xml version="1.0" encoding="utf-8"?>
<!-- Generator: Adobe Illustrator 15.0.2, SVG Export Plug-In . SVG Version: 6.00 Build 0)  -->
<!DOCTYPE svg PUBLIC "-//W3C//DTD SVG 1.1//EN" "http://www.w3.org/Graphics/SVG/1.1/DTD/svg11.dtd">
<svg version="1.1" id="レイヤー_1" xmlns="http://www.w3.org/2000/svg" xmlns:xlink="http://www.w3.org/1999/xlink" x="0px"
	 y="0px" width="18px" height="18px" viewBox="0 0 18 18" enable-background="new 0 0 18 18" xml:space="preserve">
<g>
	<path fill="#4C4C4C" d="M12.175,2.419l-0.199,0.2c1.291,1.292,1.937,2.983,1.938,4.678c-0.001,1.693-0.646,3.386-1.938,4.678
		c-1.295,1.293-2.989,1.938-4.686,1.938c-1.691,0-3.38-0.646-4.671-1.938C1.33,10.686,0.682,8.999,0.682,7.311
		c0-1.699,0.642-3.396,1.938-4.691c1.292-1.293,2.983-1.938,4.678-1.938s3.386,0.646,4.678,1.938L12.175,2.419l0.201-0.201
		c-1.402-1.401-3.242-2.104-5.079-2.104S3.62,0.816,2.218,2.218C0.813,3.624,0.114,5.47,0.114,7.311
		c0,1.833,0.706,3.668,2.104,5.064c1.4,1.4,3.236,2.104,5.072,2.104c1.839,0.001,3.682-0.699,5.086-2.104
		c1.402-1.401,2.104-3.241,2.104-5.078s-0.701-3.677-2.104-5.079L12.175,2.419z"/>
	<path fill="#4C4C4C" d="M11.975,12.375l4.577,4.577c0.11,0.11,0.29,0.11,0.4,0c0.111-0.11,0.111-0.29,0-0.4l-4.576-4.577
		c-0.111-0.11-0.291-0.11-0.4,0C11.864,12.085,11.864,12.265,11.975,12.375"/>
	<path fill="#4C4C4C" d="M13.292,14.896l2.658,2.658c0.443,0.442,1.16,0.442,1.604,0s0.443-1.161,0-1.604l-2.658-2.658
		c-0.442-0.442-1.16-0.442-1.604,0C12.85,13.734,12.85,14.453,13.292,14.896"/>
</g>
</svg>
