<?xml version="1.0" encoding="utf-8"?>
<!-- Generator: Adobe Illustrator 15.0.2, SVG Export Plug-In . SVG Version: 6.00 Build 0)  -->
<!DOCTYPE svg PUBLIC "-//W3C//DTD SVG 1.1//EN" "http://www.w3.org/Graphics/SVG/1.1/DTD/svg11.dtd">
<svg version="1.1" xmlns="http://www.w3.org/2000/svg" xmlns:xlink="http://www.w3.org/1999/xlink" x="0px" y="0px" width="12px"
	 height="12px" viewBox="0 0 12 12" enable-background="new 0 0 12 12" xml:space="preserve">
<g id="レイヤー_1" display="none">
	<g display="inline">
		<path fill="#999999" d="M10.653,1.348C10.429,1.125,10.127,1,9.811,1L6.408,1.03c-0.312,0.003-0.609,0.128-0.83,0.349l-4.23,4.23
			C1.125,5.832,1,6.134,1,6.45c0,0.315,0.125,0.617,0.348,0.841l3.362,3.362C4.933,10.875,5.236,11,5.551,11
			c0.315,0,0.618-0.125,0.841-0.347l4.229-4.23c0.22-0.22,0.345-0.518,0.349-0.83L11,2.2C11.004,1.88,10.878,1.574,10.653,1.348z
			 M8.823,4.522c-0.372,0.371-0.973,0.371-1.344,0c-0.372-0.372-0.372-0.974,0-1.345c0.371-0.372,0.973-0.372,1.344,0
			C9.195,3.549,9.195,4.15,8.823,4.522z"/>
	</g>
</g>
<g id="レイヤー_2">
	<g>
		<g>
			<path fill="#999999" d="M8.31,6.758C7.659,7.232,6.865,7.521,6,7.521c-0.865,0-1.659-0.288-2.31-0.762
				c-1.027,0.724-1.706,1.906-1.706,3.259v1.474h8.031v-1.474C10.015,8.665,9.337,7.483,8.31,6.758z M6,6.627
				c1.685,0,3.051-1.366,3.051-3.051S7.685,0.525,6,0.525c-1.686,0-3.051,1.366-3.051,3.051S4.314,6.627,6,6.627z"/>
		</g>
	</g>
</g>
</svg>
