<?xml version="1.0" encoding="utf-8"?>
<!-- Generator: Adobe Illustrator 15.0.2, SVG Export Plug-In . SVG Version: 6.00 Build 0)  -->
<!DOCTYPE svg PUBLIC "-//W3C//DTD SVG 1.1//EN" "http://www.w3.org/Graphics/SVG/1.1/DTD/svg11.dtd">
<svg version="1.1" id="レイヤー_1" xmlns="http://www.w3.org/2000/svg" xmlns:xlink="http://www.w3.org/1999/xlink" x="0px"
	 y="0px" width="12px" height="12px" viewBox="0 0 12 12" enable-background="new 0 0 12 12" xml:space="preserve">
<g>
	<path fill="#7F7F7F" d="M10.653,1.348C10.429,1.125,10.127,1,9.811,1L6.408,1.03c-0.312,0.003-0.609,0.128-0.83,0.349l-4.23,4.23
		C1.125,5.832,1,6.134,1,6.45c0,0.315,0.125,0.617,0.348,0.841l3.362,3.362C4.933,10.875,5.236,11,5.551,11
		c0.315,0,0.618-0.125,0.841-0.347l4.229-4.23c0.22-0.22,0.345-0.518,0.349-0.83L11,2.2C11.004,1.88,10.878,1.574,10.653,1.348z
		 M8.823,4.522c-0.372,0.371-0.973,0.371-1.344,0c-0.372-0.372-0.372-0.974,0-1.345c0.371-0.372,0.973-0.372,1.344,0
		C9.195,3.549,9.195,4.15,8.823,4.522z"/>
</g>
</svg>
