<?xml version="1.0" encoding="utf-8"?>
<!-- Generator: Adobe Illustrator 15.0.2, SVG Export Plug-In . SVG Version: 6.00 Build 0)  -->
<!DOCTYPE svg PUBLIC "-//W3C//DTD SVG 1.1//EN" "http://www.w3.org/Graphics/SVG/1.1/DTD/svg11.dtd">
<svg version="1.1" id="レイヤー_1" xmlns="http://www.w3.org/2000/svg" xmlns:xlink="http://www.w3.org/1999/xlink" x="0px"
	 y="0px" width="1024px" height="500px" viewBox="0 0 1024 500" enable-background="new 0 0 1024 500" xml:space="preserve">
<path fill="#3C5A99" d="M581.043,316.866c4.32,0,7.823-3.503,7.823-7.822V182.956c0-4.321-3.503-7.823-7.823-7.823H454.956
	c-4.321,0-7.822,3.502-7.822,7.823v126.088c0,4.319,3.501,7.822,7.822,7.822H581.043z"/>
<path fill="#FFFFFF" d="M544.927,316.866V261.98h18.424l2.758-21.391h-21.182v-13.657c0-6.193,1.72-10.414,10.601-10.414
	l11.327-0.005v-19.132c-1.96-0.26-8.684-0.843-16.506-0.843c-16.331,0-27.511,9.968-27.511,28.275v15.774h-18.47v21.39h18.47v54.886
	L544.927,316.866L544.927,316.866z"/>
</svg>
