<?xml version="1.0" encoding="utf-8"?>
<!-- Generator: Adobe Illustrator 15.0.2, SVG Export Plug-In . SVG Version: 6.00 Build 0)  -->
<!DOCTYPE svg PUBLIC "-//W3C//DTD SVG 1.1//EN" "http://www.w3.org/Graphics/SVG/1.1/DTD/svg11.dtd">
<svg version="1.1" id="レイヤー_1" xmlns="http://www.w3.org/2000/svg" xmlns:xlink="http://www.w3.org/1999/xlink" x="0px"
	 y="0px" width="256px" height="256px" viewBox="0 0 256 256" enable-background="new 0 0 256 256" xml:space="preserve">
<g>
	<g>
		<path fill="#40AE64" d="M129.543,160.27l8.053,8.039c0.892,0.887,0.892,2.326,0,3.214l-5.973,5.914
			c-0.388,0.391-0.76,0.401-0.991,0.401h-5.268c-0.206,0-0.589-0.006-0.974-0.388l-6.053-5.996c-0.89-0.887-0.89-2.326,0-3.214
			l7.986-7.971C127.213,159.382,128.655,159.382,129.543,160.27L129.543,160.27z M129.61,127.247l8.055,8.039
			c0.89,0.888,0.89,2.327,0,3.214l-22.547,22.496c-0.392,0.392-0.763,0.402-0.996,0.402h-5.264c-0.21,0-0.592-0.005-0.976-0.389
			l-6.051-6.032c-0.89-0.887-0.89-2.327,0-3.214l24.559-24.516C127.281,126.359,128.721,126.359,129.61,127.247L129.61,127.247z
			 M129.61,94.291l8.055,8.039c0.89,0.887,0.89,2.326,0,3.214l-39.057,39.011c-0.388,0.391-0.76,0.402-0.993,0.402H92.35
			c-0.207,0-0.59-0.005-0.975-0.389l-6.053-6.069c-0.89-0.887-0.89-2.326,0-3.214l41.069-40.994
			C127.281,93.404,128.721,93.404,129.61,94.291L129.61,94.291z M139.677,70.981c-6.448-6.436-16.903-6.436-23.352,0L61.971,125.24
			c-6.449,6.434-6.449,16.872,0,23.309l39.188,39.212c1.645,1.64,5.704,3.685,8.692,3.685h36.034c2.248,0,6.979-1.71,9.091-3.819
			l39.055-39.077c6.449-6.438,6.449-16.875,0-23.309L139.677,70.981z M139.677,70.981"/>
	</g>
</g>
</svg>
