<?xml version="1.0" encoding="utf-8"?>
<!-- Generator: Adobe Illustrator 15.0.2, SVG Export Plug-In . SVG Version: 6.00 Build 0)  -->
<!DOCTYPE svg PUBLIC "-//W3C//DTD SVG 1.1//EN" "http://www.w3.org/Graphics/SVG/1.1/DTD/svg11.dtd">
<svg version="1.1" id="レイヤー_1" xmlns="http://www.w3.org/2000/svg" xmlns:xlink="http://www.w3.org/1999/xlink" x="0px"
	 y="0px" width="841.891px" height="595.281px" viewBox="0 0 841.891 595.281" enable-background="new 0 0 841.891 595.281"
	 xml:space="preserve">
<path fill="#008AFF" d="M414.372,312.04c13.37,0,20.685-11.078,20.685-20.686c0-0.314,0-0.628-0.021-0.939
	c1.422-1.029,2.65-2.303,3.627-3.763c-1.326,0.588-2.734,0.974-4.176,1.144c1.518-0.908,2.654-2.338,3.195-4.021
	c-1.426,0.847-2.988,1.443-4.615,1.765c-2.754-2.928-7.359-3.069-10.285-0.316c-1.889,1.775-2.689,4.422-2.104,6.946
	c-5.846-0.293-11.291-3.054-14.982-7.596c-1.93,3.322-0.944,7.571,2.25,9.704c-1.156-0.034-2.288-0.346-3.299-0.909
	c0,0.029,0,0.061,0,0.092c0,3.461,2.439,6.44,5.832,7.126c-1.07,0.293-2.193,0.334-3.282,0.125c0.952,2.961,3.681,4.99,6.791,5.049
	c-2.574,2.023-5.754,3.121-9.028,3.117c-0.578,0-1.156-0.035-1.73-0.104c3.325,2.133,7.193,3.264,11.144,3.26"/>
</svg>
